<svg width="120" height="120" viewBox="0 0 120 120" fill="none" xmlns="http://www.w3.org/2000/svg">
<path d="M15 90H52.5V97.5H15V90ZM15 67.5H52.5V75H15V67.5ZM97.5 52.5H22.5C20.5109 52.5 18.6032 51.7098 17.1967 50.3033C15.7902 48.8968 15 46.9891 15 45V22.5C15 20.5109 15.7902 18.6032 17.1967 17.1967C18.6032 15.7902 20.5109 15 22.5 15H97.5C99.4891 15 101.397 15.7902 102.803 17.1967C104.21 18.6032 105 20.5109 105 22.5V45C105 46.9891 104.21 48.8968 102.803 50.3033C101.397 51.7098 99.4891 52.5 97.5 52.5ZM22.5 22.5V45H97.5V22.5H22.5ZM97.5 105H75C73.0109 105 71.1032 104.21 69.6967 102.803C68.2902 101.397 67.5 99.4891 67.5 97.5V75C67.5 73.0109 68.2902 71.1032 69.6967 69.6967C71.1032 68.2902 73.0109 67.5 75 67.5H97.5C99.4891 67.5 101.397 68.2902 102.803 69.6967C104.21 71.1032 105 73.0109 105 75V97.5C105 99.4891 104.21 101.397 102.803 102.803C101.397 104.21 99.4891 105 97.5 105ZM75 75V97.5H97.5V75H75Z" fill="black"/>
</svg>
