<svg width="120" height="120" viewBox="0 0 120 120" fill="none" xmlns="http://www.w3.org/2000/svg">
<g clip-path="url(#clip0_2_58)">
<path d="M50 37.5C50 36.837 50.2634 36.2011 50.7322 35.7322C51.2011 35.2634 51.837 35 52.5 35H72.5C73.163 35 73.7989 35.2634 74.2678 35.7322C74.7366 36.2011 75 36.837 75 37.5C75 38.163 74.7366 38.7989 74.2678 39.2678C73.7989 39.7366 73.163 40 72.5 40H52.5C51.837 40 51.2011 39.7366 50.7322 39.2678C50.2634 38.7989 50 38.163 50 37.5ZM52.5 45C51.837 45 51.2011 45.2634 50.7322 45.7322C50.2634 46.2011 50 46.837 50 47.5C50 48.163 50.2634 48.7989 50.7322 49.2678C51.2011 49.7366 51.837 50 52.5 50H72.5C73.163 50 73.7989 49.7366 74.2678 49.2678C74.7366 48.7989 75 48.163 75 47.5C75 46.837 74.7366 46.2011 74.2678 45.7322C73.7989 45.2634 73.163 45 72.5 45H52.5ZM50 70C50 69.337 50.2634 68.7011 50.7322 68.2322C51.2011 67.7634 51.837 67.5 52.5 67.5H72.5C73.163 67.5 73.7989 67.7634 74.2678 68.2322C74.7366 68.7011 75 69.337 75 70C75 70.663 74.7366 71.2989 74.2678 71.7678C73.7989 72.2366 73.163 72.5 72.5 72.5H52.5C51.837 72.5 51.2011 72.2366 50.7322 71.7678C50.2634 71.2989 50 70.663 50 70ZM52.5 77.5C51.837 77.5 51.2011 77.7634 50.7322 78.2322C50.2634 78.7011 50 79.337 50 80C50 80.663 50.2634 81.2989 50.7322 81.7678C51.2011 82.2366 51.837 82.5 52.5 82.5H72.5C73.163 82.5 73.7989 82.2366 74.2678 81.7678C74.7366 81.2989 75 80.663 75 80C75 79.337 74.7366 78.7011 74.2678 78.2322C73.7989 77.7634 73.163 77.5 72.5 77.5H52.5Z" fill="black"/>
<path fill-rule="evenodd" clip-rule="evenodd" d="M25 67.5C25 66.837 25.2634 66.2011 25.7322 65.7322C26.2011 65.2634 26.837 65 27.5 65H40C40.663 65 41.2989 65.2634 41.7678 65.7322C42.2366 66.2011 42.5 66.837 42.5 67.5V80C42.5 80.663 42.2366 81.2989 41.7678 81.7678C41.2989 82.2366 40.663 82.5 40 82.5H27.5C26.837 82.5 26.2011 82.2366 25.7322 81.7678C25.2634 81.2989 25 80.663 25 80V67.5ZM30 70V77.5H37.5V70H30Z" fill="black"/>
<path d="M44.2675 39.2675C44.7229 38.796 44.9749 38.1645 44.9692 37.509C44.9635 36.8535 44.7006 36.2265 44.2371 35.763C43.7736 35.2995 43.1465 35.0366 42.491 35.0309C41.8356 35.0252 41.204 35.2771 40.7325 35.7325L32.5 43.965L29.2675 40.7325C28.796 40.2771 28.1645 40.0252 27.509 40.0309C26.8535 40.0366 26.2265 40.2995 25.763 40.763C25.2995 41.2265 25.0366 41.8535 25.0309 42.509C25.0252 43.1645 25.2771 43.796 25.7325 44.2675L32.5 51.035L44.2675 39.2675Z" fill="black"/>
<path fill-rule="evenodd" clip-rule="evenodd" d="M25 15C22.3478 15 19.8043 16.0536 17.9289 17.9289C16.0536 19.8043 15 22.3478 15 25V95C15 97.6522 16.0536 100.196 17.9289 102.071C19.8043 103.946 22.3478 105 25 105H75C77.6522 105 80.1957 103.946 82.0711 102.071C83.9464 100.196 85 97.6522 85 95V25C85 22.3478 83.9464 19.8043 82.0711 17.9289C80.1957 16.0536 77.6522 15 75 15H25ZM20 25C20 23.6739 20.5268 22.4021 21.4645 21.4645C22.4021 20.5268 23.6739 20 25 20H75C76.3261 20 77.5979 20.5268 78.5355 21.4645C79.4732 22.4021 80 23.6739 80 25V95C80 96.3261 79.4732 97.5979 78.5355 98.5355C77.5979 99.4732 76.3261 100 75 100H25C23.6739 100 22.4021 99.4732 21.4645 98.5355C20.5268 97.5979 20 96.3261 20 95V25ZM90 40C90 38.0109 90.7902 36.1032 92.1967 34.6967C93.6032 33.2902 95.5109 32.5 97.5 32.5C99.4891 32.5 101.397 33.2902 102.803 34.6967C104.21 36.1032 105 38.0109 105 40V90.7575L97.5 102.008L90 90.7575V40ZM97.5 37.5C96.837 37.5 96.2011 37.7634 95.7322 38.2322C95.2634 38.7011 95 39.337 95 40V45H100V40C100 39.337 99.7366 38.7011 99.2678 38.2322C98.7989 37.7634 98.163 37.5 97.5 37.5ZM97.5 92.9925L95 89.2425V50H100V89.2425L97.5 92.9925Z" fill="black"/>
</g>
<defs>
<clipPath id="clip0_2_58">
<rect width="120" height="120" fill="white"/>
</clipPath>
</defs>
</svg>
