<svg width="87" height="92" viewBox="0 0 87 92" fill="none" xmlns="http://www.w3.org/2000/svg">
<path d="M1 41V16C1 14.0302 1.38799 12.0796 2.14181 10.2597C2.89563 8.43986 4.00052 6.78628 5.3934 5.3934C6.78628 4.00052 8.43986 2.89563 10.2597 2.14181C12.0796 1.38799 14.0302 1 16 1C17.9698 1 19.9204 1.38799 21.7403 2.14181C23.5601 2.89563 25.2137 4.00052 26.6066 5.3934C27.9995 6.78628 29.1044 8.43986 29.8582 10.2597C30.612 12.0796 31 14.0302 31 16V41M1 26H31M81 11V41M1 61H61M1 81H31M51 81L61 91L86 66M51 26C51 29.9782 52.5804 33.7936 55.3934 36.6066C58.2064 39.4196 62.0218 41 66 41C69.9782 41 73.7936 39.4196 76.6066 36.6066C79.4196 33.7936 81 29.9782 81 26C81 22.0218 79.4196 18.2064 76.6066 15.3934C73.7936 12.5804 69.9782 11 66 11C62.0218 11 58.2064 12.5804 55.3934 15.3934C52.5804 18.2064 51 22.0218 51 26Z" stroke="black" stroke-width="2" stroke-linecap="round" stroke-linejoin="round"/>
</svg>
