<svg width="120" height="120" viewBox="0 0 120 120" fill="none" xmlns="http://www.w3.org/2000/svg">
<path d="M87.5 110H90C92.6522 110 95.1957 108.946 97.0711 107.071C98.9464 105.196 100 102.652 100 100V35L75 10H30C27.3478 10 24.8043 11.0536 22.9289 12.9289C21.0536 14.8043 20 17.3478 20 20V35" stroke="black" stroke-width="2" stroke-linecap="round" stroke-linejoin="round"/>
<path d="M70 10V30C70 32.6522 71.0536 35.1957 72.9289 37.0711C74.8043 38.9464 77.3478 40 80 40H100M10 95C10 92.3478 11.0536 89.8043 12.9289 87.9289C14.8043 86.0536 17.3478 85 20 85C22.6522 85 25.1957 86.0536 27.0711 87.9289C28.9464 89.8043 30 92.3478 30 95V100C30 102.652 28.9464 105.196 27.0711 107.071C25.1957 108.946 22.6522 110 20 110C17.3478 110 14.8043 108.946 12.9289 107.071C11.0536 105.196 10 102.652 10 100V80C10 72.0435 13.1607 64.4129 18.7868 58.7868C24.4129 53.1607 32.0435 50 40 50C47.9565 50 55.5871 53.1607 61.2132 58.7868C66.8393 64.4129 70 72.0435 70 80V100C70 102.652 68.9464 105.196 67.0711 107.071C65.1957 108.946 62.6522 110 60 110C57.3478 110 54.8043 108.946 52.9289 107.071C51.0536 105.196 50 102.652 50 100V95C50 92.3478 51.0536 89.8043 52.9289 87.9289C54.8043 86.0536 57.3478 85 60 85C62.6522 85 65.1957 86.0536 67.0711 87.9289C68.9464 89.8043 70 92.3478 70 95" stroke="black" stroke-width="2" stroke-linecap="round" stroke-linejoin="round"/>
</svg>
