<svg width="120" height="120" viewBox="0 0 120 120" fill="none" xmlns="http://www.w3.org/2000/svg">
<path d="M75 25C75 16.7157 68.2843 10 60 10C51.7157 10 45 16.7157 45 25V55C45 63.2843 51.7157 70 60 70C68.2843 70 75 63.2843 75 55V25Z" stroke="black" stroke-width="1.5"/>
<path d="M25 15V25M5 10V30M95 15V25M115 10V30M25 50V55C25 64.2826 28.6875 73.185 35.2513 79.7487C41.815 86.3125 50.7174 90 60 90M60 90C69.2826 90 78.185 86.3125 84.7487 79.7487C91.3125 73.185 95 64.2826 95 55V50M60 90V110M60 110H45M60 110H75" stroke="black" stroke-width="1.5" stroke-linecap="round" stroke-linejoin="round"/>
</svg>
