<svg width="120" height="120" viewBox="0 0 120 120" fill="none" xmlns="http://www.w3.org/2000/svg">
<path d="M55 105V95H95V59.5C95 49.75 91.605 41.48 84.815 34.69C78.025 27.9 69.7533 24.5033 60 24.5C50.2467 24.4967 41.9767 27.8933 35.19 34.69C28.4033 41.4867 25.0067 49.7567 25 59.5V90H10V61.375H15L15.375 54.75C16.0417 49.0833 17.6883 43.8333 20.315 39C22.9417 34.1667 26.2333 29.9583 30.19 26.375C34.1467 22.7917 38.6867 20 43.81 18C48.9333 16 54.33 15 60 15C65.67 15 71.045 16 76.125 18C81.205 20 85.7467 22.7717 89.75 26.315C93.7533 29.8583 97.045 34.045 99.625 38.875C102.205 43.705 103.872 48.955 104.625 54.625L105 61.375H110V90H105V105H55ZM45 70C43.5833 70 42.3967 69.52 41.44 68.56C40.4833 67.6 40.0033 66.4133 40 65C39.9967 63.5867 40.4767 62.4 41.44 61.44C42.4033 60.48 43.59 60 45 60C46.41 60 47.5983 60.48 48.565 61.44C49.5317 62.4 50.01 63.5867 50 65C49.99 66.4133 49.51 67.6017 48.56 68.565C47.61 69.5283 46.4233 70.0067 45 70ZM75 70C73.5833 70 72.3967 69.52 71.44 68.56C70.4833 67.6 70.0033 66.4133 70 65C69.9967 63.5867 70.4767 62.4 71.44 61.44C72.4033 60.48 73.59 60 75 60C76.41 60 77.5983 60.48 78.565 61.44C79.5317 62.4 80.01 63.5867 80 65C79.99 66.4133 79.51 67.6017 78.56 68.565C77.61 69.5283 76.4233 70.0067 75 70ZM30.125 62.25C29.5417 53.4167 32.2083 45.8333 38.125 39.5C44.0417 33.1667 51.4167 30 60.25 30C67.6667 30 74.1883 32.3533 79.815 37.06C85.4417 41.7667 88.8367 47.79 90 55.13C82.4167 55.0433 75.4383 53 69.065 49C62.6917 45 57.795 39.5833 54.375 32.75C53.0417 39.4167 50.23 45.355 45.94 50.565C41.65 55.775 36.3783 59.67 30.125 62.25Z" fill="black"/>
</svg>
