<svg width="120" height="120" viewBox="0 0 120 120" fill="none" xmlns="http://www.w3.org/2000/svg">
<path d="M60 60V47.5L97.5 10L110 22.5L72.5 60H60Z" stroke="black" stroke-width="4" stroke-linecap="round" stroke-linejoin="round"/>
<path d="M40 60H22.5C19.1848 60 16.0054 61.317 13.6612 63.6612C11.317 66.0054 10 69.1848 10 72.5C10 75.8152 11.317 78.9946 13.6612 81.3388C16.0054 83.683 19.1848 85 22.5 85H97.5C100.815 85 103.995 86.317 106.339 88.6612C108.683 91.0054 110 94.1848 110 97.5C110 100.815 108.683 103.995 106.339 106.339C103.995 108.683 100.815 110 97.5 110H45" stroke="black" stroke-width="4" stroke-linecap="round" stroke-linejoin="round"/>
</svg>
